/* XPM */
static char *define[] = {
/* columns rows colors chars-per-pixel */
"16 16 4 1",
"  c black",
". c #808080",
"X c #C0C0C0",
"o c None",
/* pixels */
"oooooooooooooooo",
"oooooooooooooooo",
"oooooooooooooooo",
"oo            oo",
"oo XXXXXXXXXX oo",
"oo XXXXXXXXXX oo",
"oo XX......XX oo",
"oo XXXXXXXXXX oo",
"oo XXXXXXXXXX oo",
"oo XX......XX oo",
"oo XXXXXXXXXX oo",
"oo XXXXXXXXXX oo",
"oo            oo",
"oooooooooooooooo",
"oooooooooooooooo",
"oooooooooooooooo"
};
