/* XPM */ 
static char * iconplug_xpm[] = {
"16 16 3 1",
" 	c None",
"!	c black",
"#	c white",
"                ",
" !!!!!!!!!!!!!! ",
" !############! ",
" !####!!!!####! ",
" !###!!!!!!###! ",
" !###!!##!!###! ",
" !######!!!###! ",
" !#####!!!####! ",
" !#####!!#####! ",
" !#####!!#####! ",
" !############! ",
" !#####!!#####! ",
" !#####!!#####! ",
" !############! ",
" !!!!!!!!!!!!!! ",
"                "};