/* XPM */ 
static char * method_xpm[] = {
"18 16 6 1",
" 	c None",
"!	c #000000",
"#	c #00E020",
"$	c #007010",
"%	c #808080",
"&	c #C0C0C0",
"                  ",
"                  ",
"                  ",
"           !      ",
"          !#!     ",
"         !#$#!    ",
"        !#$#$#!   ",
"        !!#$#$#!  ",
"        !#!#$#!!  ",
"        !$#!#!$!  ",
"         !$#!$$!  ",
"          !$!$!   ",
"           !!!    ",
"            !     ",
"                  ",
"                  "};