/* XPM */ 
static char * prop_xpm[] = {
"18 16 7 1",
" 	c None",
"!	c #000000",
"#	c #000080",
"$	c #C0C0C0",
"%	c #ffffff",
"&	c #ff0000",
"'	c #00ff00",
"                  ",
"                  ",
"       !!!!!! ##  ",
"      !$$$$$$!##  ",
"     !$!$$$$$$##  ",
"!!!!!$!$!$$$$$##  ",
"!%%!$!$!$!$$$!##  ",
"!!!$!%!!!$!!! ##  ",
"!&&!%!&&!!%!   #  ",
"!!&&!&&!!%%!      ",
"!%!&&&!%%%%!      ",
"!%!&&&!!!!%!      ",
"!!&&!&&!%%%!      ",
"!&&!!!&&!!!!      ",
" !!   !!          ",
"                  "};